HIERARCHY
ROOT Hips
{
	OFFSET 56.877701 -32.693596 43.373703
	CHANNELS 6 Xposition Yposition Zposition Zrotation Xrotation Yrotation
	JOINT Chest
	{
		OFFSET -0.779999 1.005800 5.403099
		CHANNELS 6 Xposition Yposition Zposition Zrotation Xrotation Yrotation
		JOINT Chest2
		{
			OFFSET 0.000000 0.000000 4.236801
			CHANNELS 6 Xposition Yposition Zposition Zrotation Xrotation Yrotation
			JOINT Neck
			{
				OFFSET 0.000000 0.000000 9.874401
				CHANNELS 6 Xposition Yposition Zposition Zrotation Xrotation Yrotation
				JOINT Head
				{
					OFFSET 0.000000 0.000002 2.173893
					CHANNELS 6 Xposition Yposition Zposition Zrotation Xrotation Yrotation
					End Site
					{
						OFFSET 0.000000 0.000000 6.508102
					}
				}
			}
			JOINT LeftCollar
			{
				OFFSET 2.681599 -0.377600 5.432499
				CHANNELS 6 Xposition Yposition Zposition Zrotation Xrotation Yrotation
				JOINT LeftShoulder
				{
					OFFSET 5.161499 0.000000 0.000000
					CHANNELS 6 Xposition Yposition Zposition Zrotation Xrotation Yrotation
					JOINT LeftElbow
					{
						OFFSET 0.000000 0.000000 -10.869099
						CHANNELS 6 Xposition Yposition Zposition Zrotation Xrotation Yrotation
						JOINT LeftWrist
						{
							OFFSET 0.000000 0.000000 -13.344799
							CHANNELS 6 Xposition Yposition Zposition Zrotation Xrotation Yrotation
							End Site
							{
								OFFSET 0.000000 0.000000 -2.173901
							}
						}
					}
				}
			}
			JOINT RightCollar
			{
				OFFSET -2.381901 -1.419600 6.136600
				CHANNELS 6 Xposition Yposition Zposition Zrotation Xrotation Yrotation
				JOINT RightShoulder
				{
					OFFSET -4.550499 0.000000 0.000000
					CHANNELS 6 Xposition Yposition Zposition Zrotation Xrotation Yrotation
					JOINT RightElbow
					{
						OFFSET 0.000000 0.000000 -11.106499
						CHANNELS 6 Xposition Yposition Zposition Zrotation Xrotation Yrotation
						JOINT RightWrist
						{
							OFFSET 0.000000 0.000000 -12.874298
							CHANNELS 6 Xposition Yposition Zposition Zrotation Xrotation Yrotation
							End Site
							{
								OFFSET 0.000000 0.000000 -2.173901
							}
						}
					}
				}
			}
		}
	}
	JOINT LeftHip
	{
		OFFSET 2.431900 0.469601 -2.489399
		CHANNELS 6 Xposition Yposition Zposition Zrotation Xrotation Yrotation
		JOINT LeftKnee
		{
			OFFSET 0.000000 -0.000004 -18.200201
			CHANNELS 6 Xposition Yposition Zposition Zrotation Xrotation Yrotation
			JOINT LeftAnkle
			{
				OFFSET 0.000000 0.000000 -16.279900
				CHANNELS 6 Xposition Yposition Zposition Zrotation Xrotation Yrotation
				End Site
				{
					OFFSET 0.000000 -8.394100 0.000000
				}
			}
		}
	}
	JOINT RightHip
	{
		OFFSET -1.987999 -0.073502 -2.713001
		CHANNELS 6 Xposition Yposition Zposition Zrotation Xrotation Yrotation
		JOINT RightKnee
		{
			OFFSET 0.000000 -0.000004 -19.547802
			CHANNELS 6 Xposition Yposition Zposition Zrotation Xrotation Yrotation
			JOINT RightAnkle
			{
				OFFSET 0.000000 0.000000 -14.881199
				CHANNELS 6 Xposition Yposition Zposition Zrotation Xrotation Yrotation
				End Site
				{
					OFFSET 0.000000 -7.922699 0.000000
				}
			}
		}
	}
}
MOTION
Frames: 7
Frame Time: 0.041667
49.708599 -40.654095 42.320404 1794.265123 16.813622 -1.675697 -0.779998 1.005800 5.403104 6.030533 -14.331509 4.996991 0.000003 -0.000003 4.236798 -2.673469 -2.666656 0.050327 0.000004 0.000001 9.874394 63.038999 -3.418441 -12.168200 -0.000002 0.000004 2.173894 5.613697 1.478735 8.422412 2.681599 -0.377602 5.432498 7.536738 -4.145982 1.954369 5.161500 -0.000003 0.000000 228.494389 -92.364286 151.818959 -0.000003 -0.000005 -10.869101 67.783945 -11.359999 26.153862 0.000003 0.000000 -13.344803 8.650686 -14.131308 -28.631248 -2.381899 -1.419598 6.136592 2.422310 -19.234783 46.524233 -4.550510 -0.000005 -0.000008 -819.476589 -484.003925 -384.465338 0.000004 -0.000010 -11.106487 -87.025182 -61.927153 -79.520389 -0.000004 -0.000001 -12.874300 -780.975742 -6.948491 -13.849965 2.431901 0.469603 -2.489394 27.256450 -32.681707 14.785198 0.000002 -0.000008 -18.200199 -37.990421 47.978619 20.208928 -0.000008 -0.000003 -16.279900 11.687751 22.308398 -18.610145 -1.987999 -0.073504 -2.712997 -92.727352 -43.604020 -70.743862 -0.000006 0.000002 -19.547798 -1090.642858 107.845122 388.160853 0.000006 0.000005 -14.881201 528.734670 123.832395 182.313390
49.727203 -40.655998 42.311104 1794.273975 16.901438 -1.735490 -0.779996 1.005802 5.403089 6.090276 -14.683985 4.963043 0.000014 -0.000002 4.236800 -2.582782 -2.514997 0.082899 0.000004 -0.000003 9.874402 63.064790 -3.253196 -12.031184 -0.000002 -0.000003 2.173892 5.608392 1.320881 8.460613 2.681603 -0.377600 5.432496 7.333023 -4.055604 2.146651 5.161507 -0.000005 -0.000003 230.498476 -92.158390 153.718748 -0.000009 0.000003 -10.869089 68.718123 -11.072644 26.512856 0.000005 -0.000005 -13.344799 7.735017 -14.108367 -28.698621 -2.381905 -1.419604 6.136591 2.578563 -18.999816 46.993399 -4.550508 -0.000005 0.000004 -819.111256 -483.675693 -383.811634 0.000003 -0.000011 -11.106495 -87.077098 -62.299405 -79.703567 -0.000001 0.000001 -12.874297 -780.999347 -6.863424 -13.717838 2.431895 0.469604 -2.489403 27.345695 -32.803121 14.845845 0.000011 -0.000002 -18.200195 -36.629946 48.285831 19.549813 -0.000003 -0.000002 -16.279900 10.778729 22.389953 -18.823720 -1.987998 -0.073498 -2.713001 -94.045284 -43.413591 -71.536594 -0.000008 -0.000001 -19.547800 -1093.401490 110.840802 389.345836 0.000006 0.000000 -14.881194 528.417039 124.004379 180.764235
49.748802 -40.656895 42.302605 1794.300858 16.964279 -1.820144 -0.780004 1.005799 5.403101 6.136975 -14.973817 4.908230 0.000006 0.000004 4.236800 -2.414604 -2.416412 0.117636 0.000004 0.000008 9.874402 63.023385 -3.028824 -11.888823 0.000000 -0.000004 2.173892 5.612809 1.141039 8.482154 2.681602 -0.377597 5.432500 7.094894 -3.891110 2.397111 5.161500 -0.000002 -0.000003 236.172860 -91.880381 159.329435 -0.000002 0.000002 -10.869097 69.398233 -10.794586 26.839095 0.000000 -0.000001 -13.344798 6.919789 -14.188836 -28.787502 -2.381903 -1.419599 6.136595 2.679487 -18.819878 47.572110 -4.550507 0.000001 0.000019 -819.240647 -483.357953 -383.729317 0.000003 -0.000009 -11.106495 -87.523219 -62.711075 -80.037284 -0.000003 -0.000003 -12.874296 -781.013007 -6.862857 -13.577420 2.431897 0.469603 -2.489392 27.604910 -32.974763 15.074328 0.000001 -0.000006 -18.200203 -35.000113 48.842184 18.675238 -0.000008 0.000000 -16.279903 9.718297 22.486023 -19.234637 -1.988002 -0.073504 -2.712999 -95.170579 -43.293035 -72.143013 0.000003 -0.000004 -19.547806 -1095.758834 113.673370 390.095572 -0.000005 0.000006 -14.881208 528.183719 124.461674 179.190559
49.773602 -40.657196 42.295105 1794.333643 16.993169 -1.912681 -0.779993 1.005802 5.403091 6.164904 -15.162685 4.891075 0.000001 0.000003 4.236798 -2.251286 -2.328872 0.151759 0.000012 0.000004 9.874404 63.027702 -2.926539 -11.743814 -0.000005 0.000005 2.173893 5.603847 1.017044 8.516451 2.681611 -0.377596 5.432502 6.972174 -3.829131 2.512251 5.161506 -0.000008 -0.000002 247.906388 -91.728935 171.061774 -0.000000 0.000005 -10.869093 69.791761 -10.501716 27.111937 -0.000007 -0.000001 -13.344822 6.255750 -14.229434 -28.800579 -2.381904 -1.419604 6.136594 2.653368 -18.820071 47.967725 -4.550501 -0.000002 0.000015 -819.167646 -483.110154 -383.655332 -0.000004 -0.000009 -11.106496 -88.009125 -63.137217 -80.447054 0.000002 -0.000003 -12.874302 -781.029181 -6.963003 -13.468428 2.431908 0.469601 -2.489407 28.058670 -33.207502 15.462737 0.000003 0.000002 -18.200199 -33.227716 49.622246 17.636529 0.000007 -0.000005 -16.279896 8.556795 22.564256 -19.782729 -1.987991 -0.073497 -2.713012 -96.115228 -43.239585 -72.582494 -0.000008 -0.000005 -19.547806 -1097.887995 116.365004 390.640730 0.000009 0.000002 -14.881197 527.924883 124.870871 177.605163
49.802505 -40.656494 42.287800 1794.362494 17.008194 -2.024952 -0.780001 1.005801 5.403097 6.194974 -15.293903 4.903616 0.000005 0.000003 4.236798 -2.099121 -2.263765 0.183719 -0.000003 -0.000004 9.874407 63.020947 -2.881927 -11.606154 0.000002 0.000005 2.173893 5.627889 0.955556 8.542663 2.681600 -0.377604 5.432503 6.907915 -3.812154 2.566085 5.161503 0.000002 -0.000010 263.341495 -91.753633 186.518929 0.000000 0.000007 -10.869095 69.829013 -10.313435 27.338252 -0.000002 0.000004 -13.344804 5.841036 -14.223906 -28.716140 -2.381908 -1.419606 6.136597 2.584132 -18.827587 48.248589 -4.550493 -0.000003 0.000008 -819.160870 -482.896177 -383.672954 -0.000006 -0.000001 -11.106493 -88.799788 -63.528792 -81.121508 0.000003 -0.000003 -12.874296 -781.069179 -7.430748 -13.497862 2.431895 0.469599 -2.489395 28.811121 -33.536096 16.063630 0.000012 -0.000013 -18.200203 -31.271297 50.639955 16.396235 0.000003 -0.000001 -16.279902 7.254818 22.669879 -20.566449 -1.987994 -0.073497 -2.713000 -96.936121 -43.238526 -72.925178 -0.000013 0.000002 -19.547798 -1099.313155 118.738208 390.563413 -0.000000 -0.000004 -14.881200 527.746970 125.219552 176.336906
49.830498 -40.655098 42.281605 1794.377466 16.992539 -2.119184 -0.779996 1.005803 5.403103 6.228975 -15.355447 4.885943 -0.000000 -0.000001 4.236811 -1.963706 -2.208557 0.214151 -0.000002 0.000004 9.874403 63.043418 -2.869400 -11.472936 0.000003 -0.000001 2.173893 5.605771 0.921017 8.627703 2.681603 -0.377594 5.432506 6.875493 -3.811847 2.604498 5.161500 0.000006 0.000000 278.532710 -91.934729 201.730484 -0.000011 0.000008 -10.869104 69.576514 -10.221930 27.473715 0.000010 0.000003 -13.344797 5.686602 -14.168858 -28.541962 -2.381907 -1.419597 6.136599 2.513865 -18.848354 48.488596 -4.550505 -0.000004 0.000007 -819.369164 -482.697337 -383.881712 -0.000003 -0.000008 -11.106499 -89.979075 -63.815461 -82.098847 0.000002 -0.000005 -12.874305 -781.019236 -7.481769 -13.365391 2.431903 0.469606 -2.489398 29.848074 -33.965619 16.821057 -0.000005 -0.000002 -18.200203 -29.517895 51.802497 15.167014 0.000000 0.000006 -16.279900 5.943624 22.781860 -21.355225 -1.987988 -0.073500 -2.712996 -97.638265 -43.225491 -73.169604 -0.000006 0.000001 -19.547798 -1099.444076 120.475589 389.280321 0.000003 0.000005 -14.881197 527.560151 125.185210 176.936815
49.856098 -40.653095 42.276802 1794.360199 16.952823 -2.172770 -0.779989 1.005805 5.403091 6.286555 -15.388150 4.799530 -0.000008 -0.000004 4.236809 -1.836745 -2.155026 0.249348 0.000003 0.000010 9.874402 63.045098 -2.792847 -11.360750 -0.000001 0.000002 2.173902 5.588403 0.856836 8.740127 2.681599 -0.377595 5.432498 6.775712 -3.726675 2.686487 5.161508 0.000001 -0.000005 289.700834 -92.149456 212.853242 -0.000005 0.000007 -10.869101 69.357709 -10.171482 27.556299 -0.000002 -0.000007 -13.344812 5.679966 -14.118108 -28.253291 -2.381908 -1.419596 6.136605 2.523120 -18.898630 48.878360 -4.550503 0.000001 -0.000003 -820.160318 -482.434948 -384.630383 -0.000009 -0.000001 -11.106499 -91.550114 -63.951970 -83.300427 0.000004 -0.000005 -12.874298 -780.882523 -7.435041 -13.218802 2.431912 0.469608 -2.489402 31.050019 -34.465790 17.663515 0.000004 -0.000008 -18.200199 -29.291372 52.839330 14.833176 -0.000002 -0.000004 -16.279900 5.319173 22.814987 -21.772416 -1.987989 -0.073500 -2.713007 -98.165002 -43.194796 -73.297492 0.000000 0.000001 -19.547796 -1098.751222 121.680899 387.297271 -0.000002 0.000001 -14.881194 527.360764 125.177901 177.399356
